<?xml version="1.0" encoding="utf-8"?>
<!-- Generator: Adobe Illustrator 27.9.0, SVG Export Plug-In . SVG Version: 6.00 Build 0)  -->
<svg version="1.1" id="Ebene_1" xmlns="http://www.w3.org/2000/svg" xmlns:xlink="http://www.w3.org/1999/xlink" x="0px" y="0px"
	 viewBox="0 0 240 240" style="enable-background:new 0 0 240 240;" xml:space="preserve">
<style type="text/css">
	.st0{fill:#7C8EAD;}
	.st1{fill:#B9D7EE;}
	.st2{fill:#FFFFFF;}
	.st3{fill:#EBF1F6;}
</style>
<path class="st0" d="M205,25H35l15,170l70,20l70-20L205,25L205,25z"/>
<path class="st1" d="M120,40v159.5l56-16L188.5,40H120z"/>
<path class="st2" d="M165.5,65H120v20h24.5l-1.5,20h-23v20h22l-1.5,22.5l-20.5,7v21l39.5-13L163,105l0,0L165.5,65z"/>
<path class="st3" d="M120,65v20H75.5L74,65H120z M97,105l1,20h22v-20H97z M99,135H79l1.5,27.5l39.5,13v-21l-20.5-7L99,135z"/>
</svg>
