<?xml version="1.0" encoding="utf-8"?>
<!-- Generator: Adobe Illustrator 27.9.0, SVG Export Plug-In . SVG Version: 6.00 Build 0)  -->
<svg version="1.1" id="Ebene_1" xmlns="http://www.w3.org/2000/svg" xmlns:xlink="http://www.w3.org/1999/xlink" x="0px" y="0px"
	 viewBox="0 0 240 240" style="enable-background:new 0 0 240 240;" xml:space="preserve">
<style type="text/css">
	.st0{fill:#B9D7EE;}
	.st1{fill:#7C8EAD;}
	.st2{fill:#FFFFFF;}
	.st3{fill:#3D3D3D;}
</style>
<path class="st0" d="M200,100c2-8.7-0.5-18.9-12.5-30c-19.6,17.7-14,36.1-7.5,45c0,0-0.8,5-20,5s-150,0-150,0s-9.2,80,80,80
	c78,0,99.9-60,104.1-75.4c1.8,0.2,3.8,0.4,5.9,0.4c10.7-0.1,24.6-5.9,30-27.4C215.8,92.7,206.7,94.9,200,100z"/>
<path class="st1" d="M10.8,140c3.7,23.7,19.1,60,79.2,60c60.9,0,87.6-36.7,98.4-60H10.8z"/>
<path class="st0" d="M99.1,199.7c-4.6-1.6-25.4-5.4-29.1-34.7c-21,9.3-39.7,6.9-47.9,5C32.9,186.2,53,200,90,200
	C93.1,200,96.1,199.9,99.1,199.7z"/>
<path class="st2" d="M90,150c-5.5,0-10,4.5-10,10c0,5.5,4.5,10,10,10s10-4.5,10-10C100,154.5,95.5,150,90,150z"/>
<path class="st3" d="M74.6,168c1.1,2.5,0.1,5.8-2.6,6.6c-16.5,4.9-30.7,5.5-41.5,5.5c-3.2-3.1-6-6.4-8.3-9.8
	c12.9,0,33.5-0.6,45.7-4.8C70.6,164.5,73.4,165.4,74.6,168z M10,135c0,0,9.4,0.6,15-5c9.4,8.4,29.7,5.4,35,0c5.3,8.4,34.7,6.9,40,0
	c6.2,7.2,33.1,8.8,40,0c2.4,7.3,34.1,9.4,40,0c5.3,5.4,25.3,9.7,36.6,0c2.8,5.9,13.4,5,13.4,5v5H10 M85,160c0,2.8,2.2,5,5,5
	s5-2.2,5-5s-2.2-5-5-5S85,157.2,85,160z"/>
<path class="st3" d="M55,120H30V95h25V120z M105,95H80v25h25V95z M155,95h-25v25h25V95z M80,70H55v25h25V70z M130,70h-25v25h25V70z"
	/>
<path class="st1" d="M80,120H55V95h25V120z M130,95h-25v25h25V95z M130,45h-25v25h25V45z M105,70H80v25h25V70z"/>
</svg>
