<?xml version="1.0" encoding="utf-8"?>
<!-- Generator: Adobe Illustrator 27.9.0, SVG Export Plug-In . SVG Version: 6.00 Build 0)  -->
<svg version="1.1" id="Ebene_1" xmlns="http://www.w3.org/2000/svg" xmlns:xlink="http://www.w3.org/1999/xlink" x="0px" y="0px"
	 viewBox="0 0 240 240" style="enable-background:new 0 0 240 240;" xml:space="preserve">
<style type="text/css">
	.st0{fill:#7C8EAD;}
</style>
<path class="st0" d="M211,110.5L129.5,29c-2.5-2.5-6-4-9.5-4l0,0c-3.5,0-7,1.5-9.5,4L93,46.5L113.5,67c2-1,4-1.5,6.5-1.5
	c8.5,0,15,6.5,15,15c0,2.5-0.5,4.5-1.5,6.5l20,20c2-1,4-1.5,6.5-1.5c8.5,0,15,6.5,15,15s-6.5,15-15,15s-15-6.5-15-15
	c0-2.5,0.5-4.5,1.5-6.5l-20-20c-0.5,0-1,0.5-1.5,0.5v52c6,2,10,7.5,10,14c0,8.5-6.5,15-15,15s-15-6.5-15-15c0-6.5,4-12,10-14V94
	c-6-2-10-7.5-10-14c0-2.5,0.5-4.5,1.5-6.5L86,53l-57,57.5c-2.5,2.5-4,6-4,9.5c0,3.5,1.5,7,4,9.5l81.5,81.5l0,0c2.5,2.5,6,4,9.5,4
	s7-1.5,9.5-4l81.5-81.5c2.5-2.5,4-6,4-9.5C215,116.5,213.5,113,211,110.5z"/>
</svg>
