<?xml version="1.0" encoding="utf-8"?>
<!-- Generator: Adobe Illustrator 27.9.0, SVG Export Plug-In . SVG Version: 6.00 Build 0)  -->
<svg version="1.1" id="Ebene_1" xmlns="http://www.w3.org/2000/svg" xmlns:xlink="http://www.w3.org/1999/xlink" x="0px" y="0px"
	 viewBox="0 0 240 240" style="enable-background:new 0 0 240 240;" xml:space="preserve">
<style type="text/css">
	.st0{fill:#7C8EAD;}
	.st1{fill:#B9D7EE;}
	.st2{fill:#F9FBFC;}
	.st3{fill:#EBF1F6;}
</style>
<path class="st0" d="M205,25H35l15,170l70,20l70-20L205,25L205,25z"/>
<path class="st1" d="M120,40v159.5l56-16L188.5,40H120z"/>
<path class="st2" d="M120,125v-20h43l-3.5,57.5l-39.5,13v-21l20.5-7L142,125C142,125,120,125,120,125z M164.5,85l1.5-20h-46v20
	H164.5z"/>
<path class="st3" d="M120,154.5v21l-39.5-13l-2-27.5h20l1,12.5L120,154.5z M95.5,85H120V65H74.5l3.5,60h42v-20H97L95.5,85z"/>
</svg>
