<?xml version="1.0" encoding="utf-8"?>
<!-- Generator: Adobe Illustrator 27.9.0, SVG Export Plug-In . SVG Version: 6.00 Build 0)  -->
<svg version="1.1" id="Ebene_1" xmlns="http://www.w3.org/2000/svg" xmlns:xlink="http://www.w3.org/1999/xlink" x="0px" y="0px"
	 viewBox="0 0 240 240" style="enable-background:new 0 0 240 240;" xml:space="preserve">
<style type="text/css">
	.st0{fill:#7C8EAD;}
</style>
<path class="st0" d="M120,170C55.5,170,5,148,5,120s50.5-50,115-50s115,22,115,50S184.5,170,120,170z M120,80c-63,0-105,20.5-105,40
	s42,40,105,40s105-20.5,105-40S183,80,120,80z"/>
<path class="st0" d="M75.5,223c-5,0-9-1-13-3.5c-24.5-14-18-68.5,14-124.5l0,0c15-26,33.5-48,51.5-62c19.5-15,37-19.5,49-12.5
	c12.5,7,17,24.5,14,49c-3,23-13,50-28,76s-33.5,48-51.5,62C98.5,217.5,86,223,75.5,223z M164.5,27c-8,0-18.5,4.5-30,13.5
	C117.5,54,100,75,85.5,100l0,0C54,154.5,51,201.5,67.5,211c8.5,5,22.5,0.5,38-11.5c17-13.5,34.5-34.5,49-59.5c14.5-25,24-50.5,27-72
	c2.5-20-0.5-34-9-39C170,28,167.5,27,164.5,27z"/>
<path class="st0" d="M165,223c-25,0-61-30.5-88-78C44.5,89,38,34.5,62.5,20.5l0,0C87,6.5,131,39,163.5,95c15,26,25,53,28,76
	c3.5,24.5-1.5,41.5-14,49C173.5,222,169.5,223,165,223z M67.5,29C51,38.5,54,85.5,85.5,140s70.5,80.5,87,71c8.5-5,11.5-19,9-39
	c-3-21.5-12.5-47-27-72C123,45.5,84,19.5,67.5,29L67.5,29z"/>
<circle class="st0" cx="120" cy="120" r="20"/>
</svg>
