<?xml version="1.0" encoding="utf-8"?>
<!-- Generator: Adobe Illustrator 27.9.0, SVG Export Plug-In . SVG Version: 6.00 Build 0)  -->
<svg version="1.1" id="Ebene_1" xmlns="http://www.w3.org/2000/svg" xmlns:xlink="http://www.w3.org/1999/xlink" x="0px" y="0px"
	 viewBox="0 0 240 240" style="enable-background:new 0 0 240 240;" xml:space="preserve">
<style type="text/css">
	.st0{fill:#7C8EAD;}
</style>
<path class="st0" d="M199.3,129.8c-7.7,0-14.3,1.9-19.9,4.6c-2-4.1-4.1-7.7-4.5-10.3c-0.4-3.1-0.9-5-0.4-8.7c0.5-3.7,2.6-9,2.6-9.4
	s-0.5-2.3-4.9-2.3c-4.4,0-8.2,0.9-8.7,2c-0.4,1.2-1.3,3.8-1.8,6.6c-0.8,4-8.9,18.4-13.4,25.9c-1.5-2.9-2.8-5.5-3-7.6
	c-0.4-3.1-0.9-5-0.4-8.7c0.5-3.7,2.6-9,2.6-9.3c0-0.4-0.5-2.3-4.9-2.3c-4.4,0-8.2,0.9-8.7,2c-0.4,1.2-0.9,3.9-1.8,6.6
	c-0.9,2.6-11.6,26.6-14.5,32.8c-1.4,3.2-2.7,5.7-3.6,7.4c0,0,0,0,0,0s-0.1,0.1-0.1,0.3c-0.8,1.5-1.2,2.3-1.2,2.3s0,0,0,0
	c-0.6,1.1-1.2,2.1-1.6,2.1c-0.2,0-0.7-2.9,0.1-6.8c1.6-8.3,5.4-21.2,5.4-21.7c0-0.2,0.7-2.5-2.5-3.7c-3.1-1.1-4.2,0.8-4.5,0.8
	c-0.3,0-0.5,0.7-0.5,0.7s3.5-14.6-6.7-14.6c-6.3,0-15.1,6.9-19.4,13.2c-2.7,1.5-8.6,4.7-14.8,8.1c-2.4,1.3-4.8,2.6-7.1,3.9
	c-0.2-0.2-0.3-0.3-0.5-0.5c-12.3-13.1-35-22.4-34.1-40c0.4-6.4,2.6-23.3,43.7-43.8c33.7-16.8,60.6-12.2,65.3-1.9
	c6.6,14.6-14.4,41.8-49.3,45.7c-13.3,1.5-20.3-3.7-22.1-5.6c-1.8-2-2.1-2.1-2.8-1.7c-1.1,0.6-0.4,2.4,0,3.5c1,2.7,5.3,7.5,12.6,9.9
	c6.4,2.1,22.1,3.3,41-4c21.2-8.2,37.7-31,32.9-50c-4.9-19.4-37.1-25.7-67.5-14.9c-18.1,6.4-37.7,16.5-51.8,29.7
	c-16.7,15.7-19.4,29.3-18.3,35c3.9,20.2,31.8,33.4,43,43.2c-0.5,0.3-1.1,0.6-1.5,0.8c-5.6,2.8-26.9,13.9-32.2,25.7
	c-6,13.3,1,22.9,5.6,24.2c14.3,4,29.1-3.2,37-15c7.9-11.8,6.9-27.2,3.3-34.2c0-0.1-0.1-0.2-0.1-0.3c1.4-0.9,2.9-1.7,4.4-2.6
	c2.8-1.7,5.7-3.2,8.1-4.6c-1.4,3.7-2.4,8.2-2.9,14.6c-0.6,7.6,2.5,17.4,6.6,21.2c1.8,1.7,3.9,1.7,5.3,1.7c4.7,0,6.9-3.9,9.3-8.6
	c2.9-5.7,5.5-12.3,5.5-12.3s-3.2,17.9,5.6,17.9c3.2,0,6.5-4.2,7.9-6.3c0,0,0,0,0,0s0.1-0.1,0.2-0.4c0.3-0.5,0.5-0.8,0.5-0.8
	s0,0,0-0.1c1.3-2.2,4.2-7.4,8.5-15.8c5.6-10.9,10.9-24.6,10.9-24.6s0.5,3.3,2.1,8.9c1,3.2,3,6.8,4.6,10.3c-1.3,1.8-2.1,2.8-2.1,2.8
	s0,0,0,0.1c-1,1.4-2.2,2.8-3.4,4.3c-4.4,5.2-9.6,11.2-10.3,12.9c-0.8,2-0.6,3.5,1,4.7c1.2,0.9,3.2,1,5.4,0.9
	c3.9-0.3,6.7-1.2,8.1-1.8c2.1-0.8,4.6-1.9,6.9-3.7c4.3-3.2,6.9-7.7,6.6-13.7c-0.1-3.3-1.2-6.6-2.5-9.7c0.4-0.6,0.8-1.1,1.2-1.7
	c6.8-9.9,12.1-20.8,12.1-20.8s0.5,3.3,2.1,8.9c0.8,2.8,2.4,5.8,3.9,8.8c-6.4,5.2-10.3,11.2-11.7,15.2c-2.5,7.3-0.6,10.6,3.2,11.4
	c1.7,0.3,4.1-0.4,5.9-1.2c2.2-0.7,4.9-2,7.4-3.8c4.3-3.2,8.4-7.6,8.2-13.6c-0.1-2.7-0.9-5.4-1.9-8c5.4-2.3,12.4-3.5,21.3-2.5
	c19.1,2.2,22.9,14.2,22.2,19.2c-0.7,5-4.7,7.8-6.1,8.6c-1.3,0.8-1.8,1.1-1.6,1.7c0.2,0.9,0.8,0.9,1.9,0.7c1.6-0.3,10-4.1,10.4-13.3
	C230.4,142.5,219.2,129.7,199.3,129.8z M51.8,179.5c-6.3,6.9-15.2,9.5-19,7.3c-4.1-2.4-2.5-12.6,5.3-19.9
	c4.7-4.5,10.9-8.6,14.9-11.1c0.9-0.6,2.3-1.4,3.9-2.4c0.3-0.2,0.4-0.2,0.4-0.2l0,0c0.3-0.2,0.6-0.4,1-0.6
	C61.2,163,58.5,172.2,51.8,179.5z M98,148.1c-2.2,5.4-6.8,19.2-9.6,18.4c-2.4-0.6-3.9-11.1-0.5-21.4c1.7-5.2,5.4-11.4,7.5-13.8
	c3.5-3.9,7.3-5.1,8.2-3.6C104.8,129.8,99.4,144.7,98,148.1z M136.2,166.3c-0.9,0.5-1.8,0.8-2.2,0.6c-0.3-0.2,0.4-0.8,0.4-0.8
	s4.8-5.1,6.7-7.5c1.1-1.4,2.4-3,3.7-4.8c0,0.2,0,0.4,0,0.5C144.8,160.5,138.8,164.6,136.2,166.3z M165.6,159.6
	c-0.7-0.5-0.6-2.1,1.7-7.1c0.9-2,3-5.3,6.5-8.4c0.4,1.3,0.7,2.5,0.7,3.7C174.4,155.5,168.9,158.4,165.6,159.6z"/>
</svg>
