<?xml version="1.0" encoding="utf-8"?>
<!-- Generator: Adobe Illustrator 27.9.0, SVG Export Plug-In . SVG Version: 6.00 Build 0)  -->
<svg version="1.1" id="Слой_1" xmlns="http://www.w3.org/2000/svg" xmlns:xlink="http://www.w3.org/1999/xlink" x="0px" y="0px"
	 viewBox="0 0 48 48" style="enable-background:new 0 0 48 48;" xml:space="preserve">
<style type="text/css">
	.st0{fill:#7C8EAD;}
	.st1{fill:#F9FBFC;}
</style>
<rect x="6" y="6" class="st0" width="36" height="36"/>
<g>
	<polygon class="st1" points="27.5,22 14.2,22 14.2,25.3 19,25.3 19,40 22.8,40 22.8,25.3 27.5,25.3 	"/>
	<path class="st1" d="M39.2,26.1c0,0-1.8-1.2-3.8-1.2s-2.7,1-2.7,2c0,2.6,7.4,2.4,7.4,7.7c0,8.2-11.3,4.6-11.3,4.6v-3.9
		c0,0,2.2,1.6,4.7,1.6s2.5-1.7,2.5-1.9c0-2.4-7.3-2.4-7.3-7.9c0-7.4,10.7-4.5,10.7-4.5L39.2,26.1z"/>
</g>
</svg>
