<?xml version="1.0" encoding="utf-8"?>
<!-- Generator: Adobe Illustrator 27.9.0, SVG Export Plug-In . SVG Version: 6.00 Build 0)  -->
<svg version="1.1" id="Ebene_1" xmlns="http://www.w3.org/2000/svg" xmlns:xlink="http://www.w3.org/1999/xlink" x="0px" y="0px"
	 viewBox="0 0 240 240" style="enable-background:new 0 0 240 240;" xml:space="preserve">
<style type="text/css">
	.st0{fill:#EBF1F6;}
	.st1{fill:#7C8EAD;}
	.st2{fill:#B9D7EE;}
</style>
<polygon class="st0" points="120,20 35,70 35,170 120,220 205,170 205,70 "/>
<polygon class="st1" points="117.5,122.5 117.5,167.5 75,145 75,97.5 "/>
<polygon class="st1" points="122.5,122.5 122.5,167.5 165,145 165,97.5 "/>
<polygon class="st1" points="120,117.5 77.5,92.5 120,70 162.5,92.5 "/>
<g>
	<polygon class="st2" points="117.5,35 117.5,65 72.5,90 47.5,75 	"/>
	<polygon class="st2" points="117.5,205 117.5,175 72.5,150 47.5,165 	"/>
	<polygon class="st2" points="70,95 45,80 45,160 70,145 	"/>
	<polygon class="st2" points="122.5,35 122.5,65 167.5,90 192.5,75 	"/>
	<polygon class="st2" points="122.5,205 122.5,175 167.5,150 192.5,165 	"/>
	<polygon class="st2" points="170,95 195,80 195,160 170,145 	"/>
</g>
</svg>
