<?xml version="1.0" encoding="utf-8"?>
<!-- Generator: Adobe Illustrator 27.9.0, SVG Export Plug-In . SVG Version: 6.00 Build 0)  -->
<svg version="1.1" id="Ebene_1" xmlns="http://www.w3.org/2000/svg" xmlns:xlink="http://www.w3.org/1999/xlink" x="0px" y="0px"
	 viewBox="0 0 240 240" style="enable-background:new 0 0 240 240;" xml:space="preserve">
<style type="text/css">
	.st0{fill:#7C8EAD;}
	.st1{opacity:5.000000e-02;fill:#7C8EAD;enable-background:new    ;}
	.st2{opacity:7.000000e-02;fill:#3D3D3D;enable-background:new    ;}
	.st3{fill:#F9FBFC;}
</style>
<path class="st0" d="M120,20C64.8,20,20,64.9,20,120s44.8,100,100,100c55.2,0,100-44.9,100-100S175.1,20,120,20z"/>
<path class="st1" d="M120,215c-52.4,0-95-42.6-95-95c0-52.4,42.6-95,95-95c52.4,0,95,42.6,95,95C215,172.4,172.4,215,120,215z
	 M103.9,193.3c5.3,1.2,10.7,1.7,16.1,1.7c6.7,0,13.4-0.9,19.9-2.7l-18.4-50.4L103.9,193.3z M47.1,102.4C45.7,108.2,45,114,45,120
	c0,24.3,11.3,46.4,30.6,60.5L47.1,102.4z M193.8,106.4c-1.1,4.5-2.5,9.1-4.5,13.9l-19.1,55.4c15.7-14.2,24.8-34.4,24.8-55.8
	C195,115.4,194.6,110.9,193.8,106.4z M100.1,153.4l12.2-36.6L101,85.2c-3.1-0.3-5.4-0.6-5.4-0.6c-4.3-0.3-7.5-3.9-7.3-8.5
	c0.2-4.6,3.7-8.1,8.2-8.1l1.1,0.1c9.1,0.6,15.9,0.9,20.3,0.9c8,0,20.8-1,20.9-1c0,0,0,0,0,0c5,0,8.6,3.2,8.9,7.7
	c0.2,3.8-2.3,8.2-7.4,8.8c-0.4,0-1.5,0.2-3,0.3l22.4,67l3.5-11.5c3.9-10.1,5.9-18.2,5.9-24.4c0-6.9-3.2-12.2-6.1-16.8
	c-0.6-1-1.1-1.9-1.6-2.7l-1-1.6c-3.9-6.3-7.6-12.2-7.6-19.7c0-6.6,4.2-13,10.3-16.5C150.6,49.8,135.5,45,120,45
	c-20.9,0-40.6,8.6-54.7,23.8C72,68.5,78.6,68,78.7,68l0.7,0c4.4,0,7.9,3.3,8.2,7.8c0.2,3.8-2.3,8.2-7.4,8.8c-0.3,0-1.4,0.2-3,0.3
	L100.1,153.4z"/>
<path class="st2" d="M120,212.5c-51,0-92.5-41.5-92.5-92.5c0-51,41.5-92.5,92.5-92.5c51,0,92.5,41.5,92.5,92.5
	C212.5,171,171,212.5,120,212.5z M100.6,195c6.3,1.6,12.8,2.5,19.4,2.5c7.9,0,15.6-1.2,23.2-3.5l-21.7-59.5L100.6,195z M46.8,94.5
	c-2.9,8.2-4.3,16.8-4.3,25.5c0,27.8,14.4,52.8,38,66.7L46.8,94.5z M193.1,94.2c-0.5,8-2.5,16.1-6.1,25.2l-22,63.7
	c20.2-14.4,32.5-38,32.5-63.1C197.5,111.2,196,102.5,193.1,94.2z M100.1,161.3l14.9-44.6l-12.2-33.9c-3.7-0.3-6.9-0.7-6.9-0.7
	c-3-0.2-5.3-2.7-5.2-5.9c0.1-3.2,2.6-5.7,5.7-5.7c0.6,0,13.7,1,21.4,1c8.2,0,21-1,21.1-1c0,0,0,0,0,0c3.6,0,6,2.3,6.1,5.4
	c0.2,2.7-1.6,5.7-5.2,6.2c-0.1,0-2.7,0.3-6.1,0.6l25.9,77.5l5.7-19.1c4-10.2,6-18.6,6-25.2c0-7.6-3.6-13.5-6.4-18.1
	c-0.6-0.9-1.1-1.8-1.6-2.7l-1-1.7c-3.7-6-7.2-11.6-7.2-18.3c0-7.2,5.7-13.8,12.8-16c-13.6-10.8-30.5-16.7-48.1-16.7
	c-23.5,0-45.7,10.7-60.4,28.9c8.1-0.1,19.2-1,19.3-1l0.5,0c3.1,0,5.5,2.3,5.7,5.4c0.2,2.7-1.6,5.7-5.2,6.2c-0.1,0-2.7,0.3-6,0.6
	L100.1,161.3z"/>
<path class="st3" d="M120,30c-49.7,0-90,40.4-90,90s40.4,90,90,90c49.6,0,90-40.4,90-90S169.6,30,120,30z M40,120
	c0-11.6,2.5-22.6,6.9-32.6L85.1,192C58.4,179,40,151.7,40,120z M120,200c-7.8,0-15.4-1.1-22.6-3.3l24-69.8l24.6,67.4
	c0.2,0.4,0.4,0.7,0.6,1.1C138.2,198.4,129.3,200,120,200z M130.5,80.4c4.8-0.2,9.2-0.8,9.2-0.8c4.3-0.5,3.8-6.9-0.5-6.6
	c0,0-12.9,1-21.3,1c-7.8,0-21.1-1-21.1-1c-4.3-0.3-4.8,6.3-0.5,6.6c0,0,4.1,0.5,8.4,0.8l13,36.2l-17.5,52.5L70.5,80.3
	c4.8-0.2,9.1-0.8,9.1-0.8c4.3-0.5,3.8-6.9-0.5-6.6c0,0-13,1-21.3,1c-1.5,0-1.9,0.2-3.1-0.2C69.2,53.3,93.1,40,120,40
	c20.8,0,39.8,7.9,54,21c-0.4,0-0.7,0-1,0c-7.9,0-15.2,6.9-15.2,14.2c0,6.6,3.8,12.1,7.9,18.8c3,5.3,8.3,12.2,8.3,22.1
	c0,6.9-2,15.5-6.1,25.9l-8,26.6L130.5,80.4z M160.2,189.2l24.4-70.7c4.6-11.4,6.1-20.5,6.1-28.7c0-2.9-0.2-5.7-0.5-8.2
	c6.2,11.4,9.8,24.5,9.8,38.4C200,149.5,184,175.3,160.2,189.2z"/>
</svg>
